<svg width="103" height="103" viewBox="0 0 103 103" fill="none" xmlns="http://www.w3.org/2000/svg">
<g clip-path="url(#clip0_639_2)">
<circle cx="51.28" cy="51.28" r="50.28" stroke="#C24B71" stroke-width="2"/>
<path fill-rule="evenodd" clip-rule="evenodd" d="M51.077 74.726C47.1299 77.0105 42.6505 78.2146 38.09 78.217C33.4463 78.2074 28.8861 76.9823 24.8628 74.6635C20.8395 72.3447 17.4933 69.0131 15.157 65L18.892 63.063L22.645 61.143C22.6902 61.1868 22.7244 61.2405 22.745 61.3C24.3663 63.9314 26.6332 66.1047 29.3306 67.6137C32.0279 69.1227 35.0662 69.9173 38.157 69.922C40.1621 69.917 42.1537 69.593 44.057 68.962C39.9369 64.1886 37.6702 58.0931 37.6702 51.7875C37.6702 45.4819 39.9369 39.3864 44.057 34.613C42.1812 33.9683 40.2104 33.6437 38.227 33.653C35.0506 33.6527 31.9294 34.4838 29.1737 36.0635C26.418 37.6433 24.1238 39.9168 22.519 42.658C22.511 42.6745 22.5069 42.6926 22.5069 42.711C22.5069 42.7294 22.511 42.7475 22.519 42.764L14.996 38.872L15.096 38.68C17.3799 34.5729 20.7104 31.1436 24.7492 28.7408C28.7879 26.338 33.3908 25.0474 38.09 25C42.6521 24.9876 47.135 26.1927 51.076 28.491C55.0224 26.1934 59.5095 24.9885 64.076 25C68.7636 25.0057 73.3665 26.2501 77.4185 28.6071C81.4705 30.9641 84.8276 34.35 87.15 38.422L87.25 38.614L79.727 42.506C79.734 42.4903 79.7377 42.4732 79.7377 42.456C79.7377 42.4388 79.734 42.4217 79.727 42.406C78.1233 39.6637 75.8293 37.3893 73.0734 35.8093C70.3175 34.2292 67.1957 33.3985 64.019 33.4C62.03 33.3908 60.0536 33.7153 58.172 34.36C62.292 39.1334 64.5588 45.2289 64.5588 51.5345C64.5588 57.8401 62.292 63.9356 58.172 68.709C60.0812 69.3396 62.0783 69.6637 64.089 69.669C67.1797 69.6643 70.218 68.8697 72.9154 67.3607C75.6127 65.8517 77.8797 63.6784 79.501 61.047C79.5215 60.9875 79.5558 60.9337 79.601 60.89L83.336 62.81L87.089 64.747C84.7521 68.7595 81.4055 72.0904 77.382 74.4085C73.3586 76.7265 68.7984 77.951 64.155 77.96C59.5905 77.9566 55.1072 76.7526 51.155 74.469L51.077 74.726ZM51.077 64.254C47.8487 60.857 46.0382 56.3562 46.015 51.67C45.9972 47.0168 47.8162 42.5446 51.077 39.225C54.3377 42.5446 56.1568 47.0168 56.139 51.67C56.125 56.358 54.3132 60.8621 51.077 64.254Z" fill="#C24B71"/>
</g>
<defs>
<clipPath id="clip0_639_2">
<rect width="102.559" height="102.558" fill="white"/>
</clipPath>
</defs>
</svg>
